<svg width="463" height="463" viewBox="0 0 463 463" fill="none" xmlns="http://www.w3.org/2000/svg">
<path d="M320.085 112.068L352.83 117.842C361.514 119.373 369.235 124.292 374.293 131.515C379.351 138.739 381.332 147.676 379.801 156.361L339.384 385.575C337.853 394.259 332.934 401.98 325.711 407.038C318.487 412.096 309.55 414.077 300.866 412.546L104.396 377.903C95.712 376.372 87.9915 371.453 82.9335 364.229C77.8754 357.006 75.8941 348.069 77.4254 339.384L117.842 110.17C119.373 101.486 124.292 93.7653 131.515 88.7073C138.739 83.6492 147.676 81.6679 156.361 83.1992L189.106 88.973M211.252 59.115L309.486 76.4364C318.529 78.0308 324.566 86.6535 322.972 95.6958L317.198 128.441C315.604 137.483 306.981 143.521 297.939 141.926L199.704 124.605C190.662 123.01 184.624 114.388 186.219 105.345L191.992 72.6006C193.587 63.5583 202.21 57.5207 211.252 59.115Z" stroke="#1E1E1E" stroke-width="4" stroke-linecap="round" stroke-linejoin="round"/>
<path d="M250.656 278.904L300.47 246.554L268.12 196.739M213.344 185.096L163.53 217.446L195.88 267.261" stroke="#1E1E1E" stroke-width="4" stroke-linecap="round" stroke-linejoin="round"/>
</svg>
