<svg width="1440" height="1024" viewBox="0 0 1440 1024" fill="none" xmlns="http://www.w3.org/2000/svg">
<path d="M1032.32 89.9392C749.769 29.6447 914.59 4.85705 1032.32 0H1440V528.581C1369.03 520.207 1234.24 455.223 1262.9 262.281C1218.5 274.34 1110.22 256.754 1032.32 89.9392Z" fill="#FFB62D"/>
<path d="M65.0876 477.833C243.902 394.627 139.594 546.334 65.0876 632.589C365.399 618.118 365.802 746.478 328.465 812.467C504.454 812.467 611.016 953.489 642.299 1024H0M1032.32 0C914.59 4.85705 749.769 29.6447 1032.32 89.9392C1110.22 256.754 1218.5 274.34 1262.9 262.281C1234.24 455.223 1369.03 520.207 1440 528.581V0H1032.32Z" stroke="black"/>
</svg>
