<svg width="1440" height="1024" viewBox="0 0 1440 1024" fill="none" xmlns="http://www.w3.org/2000/svg">
<path d="M65.0876 477.833C79.6188 267.607 27.7505 390.239 0 477.833V1024H642.299C611.016 953.489 504.454 812.467 328.465 812.467C365.802 746.478 365.399 618.118 65.0876 632.589C139.594 546.334 243.902 394.627 65.0876 477.833Z" fill="#FFB62D"/>
<path d="M1262.9 262.281C1218.5 274.34 1110.22 256.754 1032.32 89.9392C749.769 29.6447 914.59 4.85705 1032.32 0H1440M0 477.833C27.7505 390.239 79.6188 267.607 65.0876 477.833C243.902 394.627 139.594 546.334 65.0876 632.589C365.399 618.118 365.802 746.478 328.465 812.467C504.454 812.467 611.016 953.489 642.299 1024H0V477.833Z" stroke="black"/>
</svg>
