<svg width="1236" height="797" viewBox="0 0 1236 797" fill="none" xmlns="http://www.w3.org/2000/svg">
<g clip-path="url(#clip0_15_7)">
<path d="M128.461 96.9247C125.515 87.2868 118.86 79.2142 109.962 74.4828C101.063 69.7513 90.6496 68.7486 81.0118 71.6952L26.5024 88.3604L68.1654 224.634L131.76 205.191C138.988 202.981 146.798 203.733 153.472 207.282C160.146 210.83 165.137 216.885 167.347 224.113M128.461 96.9247L167.347 224.113M128.461 96.9247C125.515 87.2868 126.518 76.8731 131.249 67.9746C135.98 59.0761 144.053 52.4215 153.691 49.4749L208.2 32.8097L249.863 169.083L186.269 188.526C179.041 190.736 172.986 195.727 169.438 202.401C165.889 209.075 165.137 216.885 167.347 224.113" stroke="#1E1E1E" stroke-width="3" stroke-linecap="round" stroke-linejoin="round"/>
</g>
<path d="M809 542.167L924.833 617.458M809 542.167L693.167 617.458M809 542.167V617.458M924.833 617.458V698.542M924.833 617.458L809 698.542M924.833 698.542L809 773.833M924.833 698.542L809 617.458M809 773.833L693.167 698.542M809 773.833V698.542M693.167 698.542V617.458M693.167 698.542L809 617.458M693.167 617.458L809 698.542" stroke="#1E1E1E" stroke-width="2" stroke-linecap="round" stroke-linejoin="round"/>
<path d="M1093.08 365.068L1125.83 370.842C1134.51 372.373 1142.23 377.292 1147.29 384.515C1152.35 391.739 1154.33 400.676 1152.8 409.361L1112.38 638.575C1110.85 647.259 1105.93 654.98 1098.71 660.038C1091.49 665.096 1082.55 667.077 1073.87 665.546L877.396 630.903C868.712 629.372 860.992 624.453 855.933 617.229C850.875 610.006 848.894 601.069 850.425 592.384L890.842 363.17C892.373 354.486 897.292 346.765 904.515 341.707C911.739 336.649 920.676 334.668 929.361 336.199L962.106 341.973M984.252 312.115L1082.49 329.436C1091.53 331.031 1097.57 339.654 1095.97 348.696L1090.2 381.441C1088.6 390.483 1079.98 396.521 1070.94 394.926L972.704 377.605C963.662 376.01 957.624 367.388 959.219 358.345L964.992 325.601C966.587 316.558 975.21 310.521 984.252 312.115Z" stroke="#1E1E1E" stroke-width="4" stroke-linecap="round" stroke-linejoin="round"/>
<path d="M1023.66 531.904L1073.47 499.554L1041.12 449.739M986.344 438.096L936.53 470.446L968.88 520.261" stroke="#1E1E1E" stroke-width="4" stroke-linecap="round" stroke-linejoin="round"/>
<defs>
<clipPath id="clip0_15_7">
<rect width="228" height="228" fill="white" transform="translate(0 66.6608) rotate(-17)"/>
</clipPath>
</defs>
</svg>
