<svg width="285" height="285" viewBox="0 0 285 285" fill="none" xmlns="http://www.w3.org/2000/svg">
<g clip-path="url(#clip0_1_64)">
<path d="M128.461 96.9247C125.515 87.2868 118.86 79.2142 109.962 74.4828C101.063 69.7513 90.6496 68.7486 81.0118 71.6952L26.5024 88.3604L68.1654 224.634L131.76 205.191C138.988 202.981 146.798 203.733 153.472 207.282C160.146 210.83 165.137 216.885 167.347 224.113M128.461 96.9247L167.347 224.113M128.461 96.9247C125.515 87.2868 126.518 76.8731 131.249 67.9746C135.98 59.0761 144.053 52.4215 153.691 49.4749L208.2 32.8097L249.863 169.083L186.269 188.526C179.041 190.736 172.986 195.727 169.438 202.401C165.889 209.075 165.137 216.885 167.347 224.113" stroke="#1E1E1E" stroke-width="3" stroke-linecap="round" stroke-linejoin="round"/>
</g>
<defs>
<clipPath id="clip0_1_64">
<rect width="228" height="228" fill="white" transform="translate(0 66.6608) rotate(-17)"/>
</clipPath>
</defs>
</svg>
