<svg width="537" height="78" viewBox="0 0 537 78" fill="none" xmlns="http://www.w3.org/2000/svg">
<path d="M11.2631 16.884V15.912H20.4431V16.884L18.4631 17.064C18.0791 17.112 17.8511 17.208 17.7791 17.352C17.7071 17.496 17.6711 17.988 17.6711 18.828V27H16.8071C16.3511 26.304 15.8111 25.752 15.1871 25.344C14.4911 25.968 13.6751 26.46 12.7391 26.82C11.8271 27.18 10.7711 27.36 9.57109 27.36C7.65109 27.36 6.01909 26.892 4.67509 25.956C3.33109 24.996 2.29909 23.664 1.57909 21.96C0.883094 20.256 0.535094 18.276 0.535094 16.02V13.32C0.535094 11.112 0.883094 9.168 1.57909 7.488C2.29909 5.808 3.34309 4.5 4.71109 3.564C6.10309 2.628 7.78309 2.16 9.75109 2.16C11.6471 2.16 13.2071 2.52 14.4311 3.24C15.6791 3.936 16.5671 4.86 17.0951 6.012C17.6471 7.164 17.8271 8.4 17.6351 9.72L14.5391 10.476C14.8031 8.172 14.5151 6.408 13.6751 5.184C12.8351 3.936 11.5271 3.312 9.75109 3.312C7.83109 3.312 6.37909 3.984 5.39509 5.328C4.43509 6.672 3.95509 8.808 3.95509 11.736V17.748C3.95509 20.676 4.44709 22.824 5.43109 24.192C6.43909 25.536 7.91509 26.208 9.85909 26.208C10.8431 26.208 11.7551 26.028 12.5951 25.668C13.4591 25.308 14.1791 24.732 14.7551 23.94V18.828C14.7551 17.988 14.7191 17.496 14.6471 17.352C14.5751 17.184 14.3471 17.088 13.9631 17.064L11.2631 16.884ZM37.846 22.896C37.414 24.528 36.598 25.68 35.398 26.352C34.222 27.024 32.914 27.36 31.474 27.36C28.81 27.36 26.818 26.556 25.498 24.948C24.178 23.316 23.518 21.144 23.518 18.432V17.712C23.518 15.024 24.154 12.876 25.426 11.268C26.698 9.636 28.546 8.82 30.97 8.82C32.266 8.82 33.442 9.084 34.498 9.612C35.578 10.14 36.43 10.92 37.054 11.952C37.702 12.984 38.026 14.268 38.026 15.804C38.026 16.524 37.954 17.28 37.81 18.072H26.758V19.152C26.758 21.672 27.142 23.484 27.91 24.588C28.702 25.668 29.974 26.208 31.726 26.208C32.83 26.208 33.742 25.92 34.462 25.344C35.206 24.768 35.698 23.772 35.938 22.356L37.846 22.896ZM30.97 9.972C29.554 9.972 28.498 10.512 27.802 11.592C27.106 12.672 26.758 14.448 26.758 16.92H34.858V16.812C34.906 16.5 34.942 16.2 34.966 15.912C34.99 15.6 35.002 15.324 35.002 15.084C35.002 13.284 34.63 11.988 33.886 11.196C33.142 10.38 32.17 9.972 30.97 9.972ZM53.3041 23.328C52.9441 24.72 52.3801 25.74 51.6121 26.388C50.8441 27.036 49.8601 27.36 48.6601 27.36C47.5081 27.36 46.5721 27.108 45.8521 26.604C45.1321 26.076 44.6041 25.392 44.2681 24.552C43.9321 23.712 43.7641 22.836 43.7641 21.924V12.096C43.7641 11.256 43.7281 10.764 43.6561 10.62C43.6081 10.476 43.3801 10.38 42.9721 10.332L40.9921 10.152V9.18H43.7641V4.464L46.7161 3.852V9.18H52.5841V10.332H46.7161V22.212C46.7161 23.724 46.9201 24.768 47.3281 25.344C47.7601 25.92 48.3241 26.208 49.0201 26.208C49.7161 26.208 50.2441 25.944 50.6041 25.416C50.9881 24.888 51.2641 24.024 51.4321 22.824L53.3041 23.328ZM78.3342 27.252C76.4622 27.252 75.3582 26.388 75.0222 24.66C74.1822 25.62 73.2582 26.316 72.2502 26.748C71.2422 27.156 70.2462 27.36 69.2622 27.36C67.5822 27.36 66.3462 26.892 65.5542 25.956C64.7622 25.02 64.3662 23.892 64.3662 22.572C64.3662 21.156 64.8462 20.04 65.8062 19.224C66.7902 18.384 68.4822 17.964 70.8822 17.964H74.9502V15.048C74.9502 13.128 74.6142 11.808 73.9422 11.088C73.2942 10.344 72.4062 9.972 71.2782 9.972C70.5582 9.972 69.9102 10.116 69.3342 10.404C68.7582 10.692 68.3382 11.22 68.0742 11.988C67.8342 12.732 67.8102 13.824 68.0022 15.264L65.1582 14.832C65.0382 13.704 65.1822 12.696 65.5902 11.808C66.0222 10.896 66.7182 10.176 67.6782 9.648C68.6622 9.096 69.8862 8.82 71.3502 8.82C73.1022 8.82 74.4462 9.12 75.3822 9.72C76.3182 10.296 76.9662 11.052 77.3262 11.988C77.7102 12.924 77.9022 13.944 77.9022 15.048V23.148C77.9022 24.372 78.0342 25.14 78.2982 25.452C78.5862 25.764 78.8982 25.92 79.2342 25.92C79.4502 25.92 79.6782 25.872 79.9182 25.776C80.1582 25.656 80.4222 25.476 80.7102 25.236L81.3582 26.136C80.9982 26.448 80.5662 26.712 80.0622 26.928C79.5822 27.144 79.0062 27.252 78.3342 27.252ZM70.2702 25.848C70.9422 25.848 71.6622 25.668 72.4302 25.308C73.2222 24.924 74.0622 24.168 74.9502 23.04V19.116H71.2782C69.9342 19.116 68.9502 19.392 68.3262 19.944C67.7262 20.472 67.4262 21.3 67.4262 22.428C67.4262 23.508 67.6542 24.348 68.1102 24.948C68.5902 25.548 69.3102 25.848 70.2702 25.848ZM100.316 26.064V27H91.0998V26.064L93.0798 25.848C93.4638 25.8 93.6918 25.704 93.7638 25.56C93.8358 25.416 93.8718 24.924 93.8718 24.084V12.096C93.8718 11.256 93.8358 10.764 93.7638 10.62C93.7158 10.476 93.4878 10.38 93.0798 10.332L91.0998 10.152V9.18H93.8718V6.588C93.8718 5.46 94.0398 4.392 94.3758 3.384C94.7358 2.376 95.3478 1.56 96.2118 0.935999C97.0758 0.311998 98.2638 -2.14577e-06 99.7758 -2.14577e-06C101.768 -2.14577e-06 103.244 0.539998 104.204 1.62C105.164 2.7 105.512 4.02 105.248 5.58L102.44 5.976C102.656 4.32 102.536 3.108 102.08 2.34C101.648 1.548 100.88 1.152 99.7758 1.152C99.1518 1.152 98.6118 1.296 98.1558 1.584C97.7238 1.848 97.3878 2.34 97.1478 3.06C96.9318 3.756 96.8238 4.764 96.8238 6.084V9.18H102.548V10.332H96.8238V24.084C96.8238 24.924 96.8598 25.428 96.9318 25.596C97.0038 25.74 97.2318 25.824 97.6158 25.848L100.316 26.064ZM123.262 26.064V27H117.718V24.12C116.878 25.248 115.918 26.076 114.838 26.604C113.782 27.108 112.726 27.36 111.67 27.36C109.966 27.36 108.634 26.82 107.674 25.74C106.738 24.636 106.27 23.088 106.27 21.096V12.096C106.27 11.256 106.234 10.764 106.162 10.62C106.09 10.476 105.862 10.38 105.478 10.332L103.498 10.152V9.18H109.222V21.06C109.222 22.836 109.486 24.096 110.014 24.84C110.566 25.56 111.358 25.92 112.39 25.92C113.158 25.92 113.998 25.68 114.91 25.2C115.846 24.72 116.722 23.796 117.538 22.428V12.096C117.538 11.256 117.502 10.764 117.43 10.62C117.358 10.452 117.13 10.356 116.746 10.332L114.046 10.152V9.18H120.49V24.084C120.49 24.924 120.526 25.416 120.598 25.56C120.67 25.704 120.898 25.8 121.282 25.848L123.262 26.064ZM125.301 1.332V0.36H131.025V24.084C131.025 24.924 131.061 25.416 131.133 25.56C131.205 25.704 131.433 25.8 131.817 25.848L133.797 26.064V27H125.301V26.064L127.281 25.848C127.665 25.8 127.893 25.704 127.965 25.56C128.037 25.416 128.073 24.924 128.073 24.084V3.276C128.073 2.436 128.037 1.944 127.965 1.8C127.893 1.656 127.665 1.56 127.281 1.512L125.301 1.332ZM135.848 1.332V0.36H141.572V24.084C141.572 24.924 141.608 25.416 141.68 25.56C141.752 25.704 141.98 25.8 142.364 25.848L144.344 26.064V27H135.848V26.064L137.828 25.848C138.212 25.8 138.44 25.704 138.512 25.56C138.584 25.416 138.62 24.924 138.62 24.084V3.276C138.62 2.436 138.584 1.944 138.512 1.8C138.44 1.656 138.212 1.56 137.828 1.512L135.848 1.332ZM154.803 10.152V9.18H160.347V12.06C161.187 10.932 162.027 10.116 162.867 9.612C163.731 9.084 164.607 8.82 165.495 8.82C166.263 8.82 166.983 9.048 167.655 9.504C168.327 9.96 168.891 10.692 169.347 11.7L167.007 13.104C166.647 12.24 166.239 11.64 165.783 11.304C165.327 10.968 164.823 10.8 164.271 10.8C163.671 10.8 163.071 10.992 162.471 11.376C161.895 11.76 161.247 12.48 160.527 13.536V24.084C160.527 24.924 160.563 25.428 160.635 25.596C160.707 25.74 160.935 25.824 161.319 25.848L164.019 26.064V27H154.803V26.064L156.783 25.848C157.167 25.8 157.395 25.704 157.467 25.56C157.539 25.416 157.575 24.924 157.575 24.084V12.096C157.575 11.256 157.539 10.764 157.467 10.62C157.395 10.476 157.167 10.38 156.783 10.332L154.803 10.152ZM185.748 22.896C185.316 24.528 184.5 25.68 183.3 26.352C182.124 27.024 180.816 27.36 179.376 27.36C176.712 27.36 174.72 26.556 173.4 24.948C172.08 23.316 171.42 21.144 171.42 18.432V17.712C171.42 15.024 172.056 12.876 173.328 11.268C174.6 9.636 176.448 8.82 178.872 8.82C180.168 8.82 181.344 9.084 182.4 9.612C183.48 10.14 184.332 10.92 184.956 11.952C185.604 12.984 185.928 14.268 185.928 15.804C185.928 16.524 185.856 17.28 185.712 18.072H174.66V19.152C174.66 21.672 175.044 23.484 175.812 24.588C176.604 25.668 177.876 26.208 179.628 26.208C180.732 26.208 181.644 25.92 182.364 25.344C183.108 24.768 183.6 23.772 183.84 22.356L185.748 22.896ZM178.872 9.972C177.456 9.972 176.4 10.512 175.704 11.592C175.008 12.672 174.66 14.448 174.66 16.92H182.76V16.812C182.808 16.5 182.844 16.2 182.868 15.912C182.892 15.6 182.904 15.324 182.904 15.084C182.904 13.284 182.532 11.988 181.788 11.196C181.044 10.38 180.072 9.972 178.872 9.972ZM189.074 10.116V9.18H194.618V12.06C195.338 10.932 196.142 10.116 197.03 9.612C197.942 9.084 198.95 8.82 200.054 8.82C202.118 8.82 203.714 9.6 204.842 11.16C205.994 12.72 206.57 14.904 206.57 17.712V18.432C206.57 21.168 205.91 23.34 204.59 24.948C203.27 26.556 201.434 27.36 199.082 27.36C197.402 27.36 195.974 26.844 194.798 25.812V31.752C194.798 32.568 194.834 33.048 194.906 33.192C194.978 33.36 195.206 33.468 195.59 33.516L198.29 33.696V34.668H189.074V33.696L191.054 33.516C191.438 33.468 191.666 33.36 191.738 33.192C191.81 33.048 191.846 32.568 191.846 31.752V12.096C191.846 11.256 191.81 10.764 191.738 10.62C191.666 10.476 191.438 10.38 191.054 10.332L189.074 10.116ZM199.586 10.116C198.842 10.116 198.062 10.356 197.246 10.836C196.454 11.316 195.638 12.288 194.798 13.752V24.048C195.83 25.464 197.198 26.172 198.902 26.172C200.462 26.172 201.59 25.584 202.286 24.408C202.982 23.208 203.33 21.576 203.33 19.512V16.632C203.33 14.376 203.006 12.732 202.358 11.7C201.71 10.644 200.786 10.116 199.586 10.116ZM226.769 17.712V18.432C226.769 21.144 226.085 23.316 224.717 24.948C223.373 26.556 221.453 27.36 218.957 27.36C216.485 27.36 214.565 26.556 213.197 24.948C211.853 23.316 211.181 21.144 211.181 18.432V17.712C211.181 15.024 211.853 12.876 213.197 11.268C214.541 9.636 216.461 8.82 218.957 8.82C221.453 8.82 223.373 9.636 224.717 11.268C226.085 12.876 226.769 15.024 226.769 17.712ZM223.529 16.992C223.529 14.496 223.133 12.708 222.341 11.628C221.573 10.524 220.445 9.972 218.957 9.972C217.493 9.972 216.365 10.524 215.573 11.628C214.805 12.708 214.421 14.496 214.421 16.992V19.152C214.421 21.672 214.805 23.484 215.573 24.588C216.365 25.668 217.493 26.208 218.957 26.208C220.445 26.208 221.573 25.668 222.341 24.588C223.133 23.484 223.529 21.672 223.529 19.152V16.992ZM230.248 10.152V9.18H235.792V12.06C236.632 10.932 237.472 10.116 238.312 9.612C239.176 9.084 240.052 8.82 240.94 8.82C241.708 8.82 242.428 9.048 243.1 9.504C243.772 9.96 244.336 10.692 244.792 11.7L242.452 13.104C242.092 12.24 241.684 11.64 241.228 11.304C240.772 10.968 240.268 10.8 239.716 10.8C239.116 10.8 238.516 10.992 237.916 11.376C237.34 11.76 236.692 12.48 235.972 13.536V24.084C235.972 24.924 236.008 25.428 236.08 25.596C236.152 25.74 236.38 25.824 236.764 25.848L239.464 26.064V27H230.248V26.064L232.228 25.848C232.612 25.8 232.84 25.704 232.912 25.56C232.984 25.416 233.02 24.924 233.02 24.084V12.096C233.02 11.256 232.984 10.764 232.912 10.62C232.84 10.476 232.612 10.38 232.228 10.332L230.248 10.152ZM257.949 23.328C257.589 24.72 257.025 25.74 256.257 26.388C255.489 27.036 254.505 27.36 253.305 27.36C252.153 27.36 251.217 27.108 250.497 26.604C249.777 26.076 249.249 25.392 248.913 24.552C248.577 23.712 248.409 22.836 248.409 21.924V12.096C248.409 11.256 248.373 10.764 248.301 10.62C248.253 10.476 248.025 10.38 247.617 10.332L245.637 10.152V9.18H248.409V4.464L251.361 3.852V9.18H257.229V10.332H251.361V22.212C251.361 23.724 251.565 24.768 251.973 25.344C252.405 25.92 252.969 26.208 253.665 26.208C254.361 26.208 254.889 25.944 255.249 25.416C255.633 24.888 255.909 24.024 256.077 22.824L257.949 23.328ZM284.707 17.712V18.432C284.707 21.144 284.023 23.316 282.655 24.948C281.311 26.556 279.391 27.36 276.895 27.36C274.423 27.36 272.503 26.556 271.135 24.948C269.791 23.316 269.119 21.144 269.119 18.432V17.712C269.119 15.024 269.791 12.876 271.135 11.268C272.479 9.636 274.399 8.82 276.895 8.82C279.391 8.82 281.311 9.636 282.655 11.268C284.023 12.876 284.707 15.024 284.707 17.712ZM281.467 16.992C281.467 14.496 281.071 12.708 280.279 11.628C279.511 10.524 278.383 9.972 276.895 9.972C275.431 9.972 274.303 10.524 273.511 11.628C272.743 12.708 272.359 14.496 272.359 16.992V19.152C272.359 21.672 272.743 23.484 273.511 24.588C274.303 25.668 275.431 26.208 276.895 26.208C278.383 26.208 279.511 25.668 280.279 24.588C281.071 23.484 281.467 21.672 281.467 19.152V16.992ZM297.402 26.064V27H288.186V26.064L290.166 25.848C290.55 25.8 290.778 25.704 290.85 25.56C290.922 25.416 290.958 24.924 290.958 24.084V12.096C290.958 11.256 290.922 10.764 290.85 10.62C290.802 10.476 290.574 10.38 290.166 10.332L288.186 10.152V9.18H290.958V6.588C290.958 5.46 291.126 4.392 291.462 3.384C291.822 2.376 292.434 1.56 293.298 0.935999C294.162 0.311998 295.35 -2.14577e-06 296.862 -2.14577e-06C298.854 -2.14577e-06 300.33 0.539998 301.29 1.62C302.25 2.7 302.598 4.02 302.334 5.58L299.526 5.976C299.742 4.32 299.622 3.108 299.166 2.34C298.734 1.548 297.966 1.152 296.862 1.152C296.238 1.152 295.698 1.296 295.242 1.584C294.81 1.848 294.474 2.34 294.234 3.06C294.018 3.756 293.91 4.764 293.91 6.084V9.18H299.634V10.332H293.91V24.084C293.91 24.924 293.946 25.428 294.018 25.596C294.09 25.74 294.318 25.824 294.702 25.848L297.402 26.064ZM324.076 27.252C322.204 27.252 321.1 26.388 320.764 24.66C319.924 25.62 319 26.316 317.992 26.748C316.984 27.156 315.988 27.36 315.004 27.36C313.324 27.36 312.088 26.892 311.296 25.956C310.504 25.02 310.108 23.892 310.108 22.572C310.108 21.156 310.588 20.04 311.548 19.224C312.532 18.384 314.224 17.964 316.624 17.964H320.692V15.048C320.692 13.128 320.356 11.808 319.684 11.088C319.036 10.344 318.148 9.972 317.02 9.972C316.3 9.972 315.652 10.116 315.076 10.404C314.5 10.692 314.08 11.22 313.816 11.988C313.576 12.732 313.552 13.824 313.744 15.264L310.9 14.832C310.78 13.704 310.924 12.696 311.332 11.808C311.764 10.896 312.46 10.176 313.42 9.648C314.404 9.096 315.628 8.82 317.092 8.82C318.844 8.82 320.188 9.12 321.124 9.72C322.06 10.296 322.708 11.052 323.068 11.988C323.452 12.924 323.644 13.944 323.644 15.048V23.148C323.644 24.372 323.776 25.14 324.04 25.452C324.328 25.764 324.64 25.92 324.976 25.92C325.192 25.92 325.42 25.872 325.66 25.776C325.9 25.656 326.164 25.476 326.452 25.236L327.1 26.136C326.74 26.448 326.308 26.712 325.804 26.928C325.324 27.144 324.748 27.252 324.076 27.252ZM316.012 25.848C316.684 25.848 317.404 25.668 318.172 25.308C318.964 24.924 319.804 24.168 320.692 23.04V19.116H317.02C315.676 19.116 314.692 19.392 314.068 19.944C313.468 20.472 313.168 21.3 313.168 22.428C313.168 23.508 313.396 24.348 313.852 24.948C314.332 25.548 315.052 25.848 316.012 25.848ZM192.29 55.148C191.714 55.148 191.234 54.968 190.85 54.608C190.49 54.224 190.31 53.732 190.31 53.132C190.31 52.556 190.49 52.088 190.85 51.728C191.234 51.368 191.714 51.188 192.29 51.188C192.866 51.188 193.334 51.368 193.694 51.728C194.078 52.088 194.27 52.556 194.27 53.132C194.27 53.732 194.078 54.224 193.694 54.608C193.334 54.968 192.866 55.148 192.29 55.148ZM188.078 60.152V59.18H193.802V74.084C193.802 74.924 193.838 75.416 193.91 75.56C193.982 75.704 194.21 75.8 194.594 75.848L196.574 76.064V77H188.078V76.064L190.058 75.848C190.442 75.8 190.67 75.704 190.742 75.56C190.814 75.416 190.85 74.924 190.85 74.084V62.096C190.85 61.256 190.814 60.764 190.742 60.62C190.67 60.476 190.442 60.38 190.058 60.332L188.078 60.152ZM218.96 76.064V77H210.464V76.064L212.444 75.848C212.828 75.8 213.056 75.704 213.128 75.56C213.2 75.416 213.236 74.924 213.236 74.084V65.12C213.236 63.344 212.948 62.096 212.372 61.376C211.796 60.632 210.968 60.26 209.888 60.26C209.096 60.26 208.22 60.5 207.26 60.98C206.3 61.46 205.4 62.396 204.56 63.788V74.084C204.56 74.924 204.596 75.416 204.668 75.56C204.74 75.704 204.968 75.8 205.352 75.848L207.332 76.064V77H198.836V76.064L200.816 75.848C201.2 75.8 201.428 75.704 201.5 75.56C201.572 75.416 201.608 74.924 201.608 74.084V62.096C201.608 61.256 201.572 60.764 201.5 60.62C201.428 60.476 201.2 60.38 200.816 60.332L198.836 60.152V59.18H204.38V62.096C205.244 60.944 206.216 60.116 207.296 59.612C208.4 59.084 209.504 58.82 210.608 58.82C212.384 58.82 213.752 59.372 214.712 60.476C215.696 61.556 216.188 63.092 216.188 65.084V74.084C216.188 74.924 216.224 75.416 216.296 75.56C216.368 75.704 216.596 75.8 216.98 75.848L218.96 76.064ZM244.043 77.252C242.171 77.252 241.067 76.388 240.731 74.66C239.891 75.62 238.967 76.316 237.959 76.748C236.951 77.156 235.955 77.36 234.971 77.36C233.291 77.36 232.055 76.892 231.263 75.956C230.471 75.02 230.075 73.892 230.075 72.572C230.075 71.156 230.555 70.04 231.515 69.224C232.499 68.384 234.191 67.964 236.591 67.964H240.659V65.048C240.659 63.128 240.323 61.808 239.651 61.088C239.003 60.344 238.115 59.972 236.987 59.972C236.267 59.972 235.619 60.116 235.043 60.404C234.467 60.692 234.047 61.22 233.783 61.988C233.543 62.732 233.519 63.824 233.711 65.264L230.867 64.832C230.747 63.704 230.891 62.696 231.299 61.808C231.731 60.896 232.427 60.176 233.387 59.648C234.371 59.096 235.595 58.82 237.059 58.82C238.811 58.82 240.155 59.12 241.091 59.72C242.027 60.296 242.675 61.052 243.035 61.988C243.419 62.924 243.611 63.944 243.611 65.048V73.148C243.611 74.372 243.743 75.14 244.007 75.452C244.295 75.764 244.607 75.92 244.943 75.92C245.159 75.92 245.387 75.872 245.627 75.776C245.867 75.656 246.131 75.476 246.419 75.236L247.067 76.136C246.707 76.448 246.275 76.712 245.771 76.928C245.291 77.144 244.715 77.252 244.043 77.252ZM235.979 75.848C236.651 75.848 237.371 75.668 238.139 75.308C238.931 74.924 239.771 74.168 240.659 73.04V69.116H236.987C235.643 69.116 234.659 69.392 234.035 69.944C233.435 70.472 233.135 71.3 233.135 72.428C233.135 73.508 233.363 74.348 233.819 74.948C234.299 75.548 235.019 75.848 235.979 75.848Z" fill="black"/>
<path d="M354.988 28.7227V22.2891C352.762 23.8125 351.215 24.8203 350.348 25.3125C348.332 26.4141 346.562 26.9648 345.039 26.9648C343.211 26.9648 341.641 26.2969 340.328 24.9609C338.992 23.5781 338.324 21.9961 338.324 20.2148C338.441 18.3398 338.84 16.4414 339.52 14.5195C340.926 10.4414 343.258 7.45312 346.516 5.55469C348.133 4.59375 349.996 4.11328 352.105 4.11328C352.152 4.11328 352.199 4.11328 352.246 4.11328L353.195 4.07812C354.273 4.07812 354.766 4.5 354.672 5.34375C352.797 5.4375 351.039 5.87109 349.398 6.64453C347.758 7.41797 346.328 8.46094 345.109 9.77344C343.914 11.0625 342.965 12.5742 342.262 14.3086C341.582 16.043 341.242 17.8125 341.242 19.6172C341.242 21.4219 341.711 22.7227 342.648 23.5195C343.586 24.3164 344.793 24.7148 346.27 24.7148C347.535 24.7148 349.293 24.1641 351.543 23.0625C352.973 22.3594 354.039 21.5625 354.742 20.6719C355.094 20.25 355.27 19.8047 355.27 19.3359V14.1328C354.566 14.1328 352.926 14.4023 350.348 14.9414C347.793 15.4805 346.316 15.7852 345.918 15.8555C345.801 15.7852 345.66 15.7148 345.496 15.6445C345.332 15.5508 345.238 15.4219 345.215 15.2578C345.168 14.9062 345.684 14.3672 346.762 13.6406C347.02 13.5 348.566 13.2305 351.402 12.832C354.238 12.4102 356.043 12.1406 356.816 12.0234C357.59 11.9062 358.234 11.8125 358.75 11.7422C358.984 11.7891 359.277 11.7891 359.629 11.7422C359.98 11.6719 360.309 11.6484 360.613 11.6719C361.363 11.6953 361.715 12.1055 361.668 12.9023L358.75 14.0977C358.305 15.5273 358.082 18.2227 358.082 22.1836L358.152 27.4219C358.152 27.8906 358.152 28.3242 358.152 28.7227C357.449 29.0742 356.77 29.25 356.113 29.25C355.457 29.25 355.082 29.0742 354.988 28.7227ZM366.59 10.4766C366.895 14.8594 367.152 19.9336 367.363 25.6992C367.223 26.4258 366.66 26.7891 365.676 26.7891C365.418 26.7891 365.148 26.7422 364.867 26.6484C364.609 26.5312 364.445 26.3789 364.375 26.1914V10.4766H366.59ZM363.32 5.69531C363.32 4.875 363.801 4.46484 364.762 4.46484C365.395 4.46484 365.91 4.60547 366.309 4.88672C366.379 5.14453 366.414 5.40234 366.414 5.66016C366.414 5.89453 366.32 6.12891 366.133 6.36328C365.945 6.59766 365.664 6.71484 365.289 6.71484C364.914 6.71484 364.539 6.63281 364.164 6.46875C363.789 6.28125 363.508 6.02344 363.32 5.69531ZM374.184 23.625L374.254 18C374.254 17.1094 374.172 16.3477 374.008 15.7148H368.559L368.488 13.2891H373.762V4.21875C373.832 4.00781 373.973 3.79688 374.184 3.58594C374.512 3.25781 374.781 3.09375 374.992 3.09375C375.227 3.09375 375.426 3.11719 375.59 3.16406C375.754 3.21094 375.93 3.375 376.117 3.65625C376.492 5.20312 376.68 7.53516 376.68 10.6523C376.68 11.4258 376.715 12.1875 376.785 12.9375C377.535 12.8438 378.285 12.7969 379.035 12.7969C379.035 12.7969 379.645 12.7969 380.863 12.7969C381.309 12.7969 381.719 12.7734 382.094 12.7266L381.988 15.2578L376.855 15.1172L377.031 27.2461C376.609 27.4336 376.246 27.5273 375.941 27.5273C374.77 27.5273 374.184 26.2266 374.184 23.625ZM387.93 17.0859C387.859 17.8828 387.824 19.0195 387.824 20.4961C387.824 21.9492 388.047 23.7188 388.492 25.8047L385.715 27.2109L384.449 17.6484C383.629 17.5312 383.219 17.25 383.219 16.8047C383.219 16.4766 383.406 16.0898 383.781 15.6445C384.18 15.1992 384.473 14.8359 384.66 14.5547C384.848 14.25 384.953 13.9219 384.977 13.5703C385.023 13.1953 385.082 12.5391 385.152 11.6016C385.223 10.6641 385.281 9.66797 385.328 8.61328C385.398 7.55859 385.457 6.5625 385.504 5.625C385.574 4.6875 385.609 4.03125 385.609 3.65625C386.125 3.14063 386.5 2.82422 386.734 2.70703C387.32 2.40234 387.719 2.51953 387.93 3.05859L387.719 14.1328C393.508 14.1328 396.988 13.7578 398.16 13.0078V1.89844C398.301 1.5 398.957 1.30078 400.129 1.30078C400.387 1.30078 400.598 1.3125 400.762 1.33594C400.762 1.78125 400.773 2.46094 400.797 3.375C400.844 4.26563 400.879 5.28516 400.902 6.43359C400.949 7.58203 400.996 8.80078 401.043 10.0898C401.09 11.3555 401.137 12.5625 401.184 13.7109C401.254 16.1016 401.312 17.8594 401.359 18.9844C401.523 21.7969 402.098 24.0703 403.082 25.8047C402.027 26.2266 400.867 26.4375 399.602 26.4375C398.523 23.7656 397.949 20.2617 397.879 15.9258C396.332 15.8789 395.277 15.8555 394.715 15.8555C394.152 15.8555 393.52 15.8906 392.816 15.9609C391.363 16.0547 389.734 16.4297 387.93 17.0859ZM405.051 22.3242C405.051 21.9492 405.016 21.4336 404.945 20.7773C404.898 20.0977 404.852 19.3594 404.805 18.5625C404.758 17.7656 404.734 16.957 404.734 16.1367C404.734 15.3164 404.805 14.5664 404.945 13.8867C405.25 12.3633 405.883 11.6016 406.844 11.6016C407.5 11.7891 407.934 12.0234 408.145 12.3047C408.379 12.5859 408.496 12.9375 408.496 13.3594C408.496 13.7578 408.391 14.2617 408.18 14.8711C407.406 16.9102 407.02 18.75 407.02 20.3906C407.02 20.9297 407.055 21.5039 407.125 22.1133C407.5 23.6836 408.789 24.4688 410.992 24.4688C412.141 24.4688 413.23 24.2695 414.262 23.8711C416.23 23.1445 417.566 22.2891 418.27 21.3047C418.48 20.2266 418.586 19.2891 418.586 18.4922C418.586 17.6719 418.551 16.9453 418.48 16.3125C418.434 15.6797 418.363 14.9883 418.27 14.2383C418.199 13.4648 418.152 12.6211 418.129 11.707C418.434 11.5664 418.727 11.4961 419.008 11.4961C419.312 11.4961 419.617 11.6484 419.922 11.9531C420.25 12.2578 420.52 12.832 420.73 13.6758C420.965 14.5195 421.117 15.5156 421.188 16.6641C421.258 17.7891 421.293 18.9609 421.293 20.1797C421.316 21.3984 421.328 22.582 421.328 23.7305C421.328 24.8555 421.375 25.8281 421.469 26.6484C421.188 26.9062 420.918 27.0352 420.66 27.0352C419.723 27.0352 419.031 26.0977 418.586 24.2227C418.281 24.4805 417.766 24.7969 417.039 25.1719C415.492 26.0156 413.664 26.5781 411.555 26.8594C411.156 26.9062 410.711 26.9297 410.219 26.9297C409.727 26.9297 409.105 26.8359 408.355 26.6484C407.629 26.4609 406.938 26.0273 406.281 25.3477C405.625 24.668 405.215 23.6602 405.051 22.3242ZM423.719 6.60938L423.613 2.07422C423.613 1.69922 423.742 1.40625 424 1.19531C424.258 0.984375 424.574 0.878906 424.949 0.878906C425.324 0.878906 425.664 0.984375 425.969 1.19531C426.273 1.38281 426.391 1.65234 426.32 2.00391L426.566 17.1914C428.043 15.2227 430.035 13.5703 432.543 12.2344C434.629 11.1094 436.457 10.5469 438.027 10.5469C439.41 10.5469 440.477 10.9922 441.227 11.8828C441.789 12.5859 442.07 13.5234 442.07 14.6953C442.07 15.8438 441.848 16.8516 441.402 17.7188C440.98 18.5625 440.418 19.3828 439.715 20.1797C439.012 20.9531 438.203 21.6797 437.289 22.3594C436.375 23.0391 435.449 23.6484 434.512 24.1875C432.73 25.2188 430.973 26.0742 429.238 26.7539C429.098 26.707 428.863 26.6953 428.535 26.7188C428.207 26.7422 427.809 26.7539 427.34 26.7539C426.074 26.7539 424.961 26.6016 424 26.2969C423.766 24.0703 423.648 20.6836 423.648 16.1367L423.719 6.60938ZM426.672 23.8711C426.672 24.1289 426.906 24.2578 427.375 24.2578C427.867 24.2578 428.465 24.1641 429.168 23.9766C429.871 23.7891 430.715 23.4727 431.699 23.0273C432.707 22.5586 433.715 21.9609 434.723 21.2344C437.066 19.5703 438.836 17.6133 440.031 15.3633C439.727 14.0273 438.812 13.3594 437.289 13.3594C435.906 13.3594 434.348 13.875 432.613 14.9062C430.152 16.3828 428.395 18.2109 427.34 20.3906C426.895 21.2578 426.672 22.1367 426.672 23.0273C426.672 23.2617 426.672 23.4492 426.672 23.5898C426.672 23.7305 426.672 23.8242 426.672 23.8711ZM475.398 14.168C474.414 13.4648 473.148 13.1133 471.602 13.1133C470.148 13.1133 468.801 13.3828 467.559 13.9219C465.215 14.9062 463.609 16.1719 462.742 17.7188C462.367 18.4219 462.18 19.1719 462.18 19.9688C462.18 20.1094 462.18 20.5078 462.18 21.1641C462.18 21.7969 462.297 22.6641 462.531 23.7656C462.766 24.8438 462.883 25.9453 462.883 27.0703C462.391 27.0938 461.992 27.1523 461.688 27.2461C461.383 27.3398 461.125 27.3867 460.914 27.3867C460.703 27.3867 460.516 27.293 460.352 27.1055C460.211 26.918 460.047 26.5547 459.859 26.0156C459.836 25.875 459.789 25.4766 459.719 24.8203C459.648 24.1641 459.555 23.3672 459.438 22.4297C459.344 21.4922 459.227 20.4727 459.086 19.3711C458.969 18.2461 458.852 17.1445 458.734 16.0664C458.477 13.7227 458.277 12 458.137 10.8984C458.137 10.3359 458.547 10.0547 459.367 10.0547C459.859 10.0547 460.246 10.2656 460.527 10.6875C460.809 11.0859 461.031 11.5547 461.195 12.0938C461.359 12.6094 461.465 13.125 461.512 13.6406C461.582 14.1562 461.641 14.5195 461.688 14.7305C464.781 11.9648 468.625 10.582 473.219 10.582C473.734 10.582 474.273 10.5938 474.836 10.6172C474.977 10.5938 475.152 10.582 475.363 10.582C475.574 10.582 475.785 10.7227 475.996 11.0039C476.254 11.332 476.383 11.7305 476.383 12.1992C476.383 13.3711 476.055 14.0273 475.398 14.168ZM485.172 24.5391C487.234 24.5391 490.34 23.6016 494.488 21.7266C494.746 21.7266 494.957 21.8203 495.121 22.0078C495.285 22.1719 495.367 22.3711 495.367 22.6055C494.43 24.1992 492.637 25.4414 489.988 26.332C487.34 27.2227 484.867 27.375 482.57 26.7891C479.969 26.1094 478.387 24.6445 477.824 22.3945C477.777 21.9492 477.754 21.3516 477.754 20.6016C477.754 19.8516 477.941 18.8672 478.316 17.6484C478.715 16.4062 479.383 15.2344 480.32 14.1328C481.258 13.0312 482.359 12.1641 483.625 11.5312C484.891 10.8984 486.238 10.582 487.668 10.582C489.027 10.582 490.551 11.0508 492.238 11.9883C493.035 12.4336 493.668 12.9375 494.137 13.5C494.605 14.0625 494.84 14.6367 494.84 15.2227C494.84 15.3867 494.828 15.5508 494.805 15.7148C494.758 17.1445 494.066 18.0469 492.73 18.4219C492.145 18.5859 491.465 18.668 490.691 18.668L485.629 18.457C483.941 18.457 482.652 18.8203 481.762 19.5469C481.246 19.9453 480.883 20.543 480.672 21.3398C481.258 23.4727 482.758 24.5391 485.172 24.5391ZM491.43 13.6758C490.914 13.3008 490.375 13.0312 489.812 12.8672C489.25 12.7031 488.781 12.6211 488.406 12.6211C488.031 12.6211 487.422 12.75 486.578 13.0078C485.734 13.2422 484.984 13.5117 484.328 13.8164C482.711 14.5664 481.902 15.3516 481.902 16.1719C483.777 16.3359 485.184 16.418 486.121 16.418C488.723 16.418 490.48 16.1953 491.395 15.75C491.957 15.5156 492.238 15.2227 492.238 14.8711C492.238 14.4492 491.969 14.0508 491.43 13.6758ZM500.852 12.9023C504.039 11.8008 506.793 11.25 509.113 11.25C512.066 11.25 514.035 12.0234 515.02 13.5703C515.465 14.2969 515.688 15.082 515.688 15.9258C515.688 17.0977 515.312 18.3047 514.562 19.5469C513.836 20.7891 512.863 21.9141 511.645 22.9219C508.809 25.2422 505.363 26.6836 501.309 27.2461C501.309 27.5039 501.309 27.9141 501.309 28.4766C501.332 29.0625 501.344 29.707 501.344 30.4102C501.367 31.1133 501.379 31.8633 501.379 32.6602C501.402 33.457 501.426 34.2188 501.449 34.9453C501.52 36.75 501.566 37.7812 501.59 38.0391C501.637 38.2969 501.66 38.5078 501.66 38.6719C501.66 39.2578 501.473 39.6914 501.098 39.9727C500.723 40.2773 500.23 40.4297 499.621 40.4297C499.504 40.4297 499.387 40.4297 499.27 40.4297L498.707 12.1641C498.918 11.8594 499.199 11.7188 499.551 11.7422C499.902 11.7656 500.184 11.8594 500.395 12.0234C500.605 12.1875 500.758 12.4805 500.852 12.9023ZM511.117 14.1328C510.344 13.7344 509.512 13.5352 508.621 13.5352C507.754 13.5352 506.887 13.6172 506.02 13.7812C504.051 14.1562 502.598 14.9883 501.66 16.2773C501.238 16.8867 501.027 17.6367 501.027 18.5273C501.027 18.6211 501.027 18.7148 501.027 18.8086V24.8906C505.855 23.8125 509.277 22.3125 511.293 20.3906C512.465 19.2891 513.051 18.1523 513.051 16.9805C513.051 15.7383 512.406 14.7891 511.117 14.1328ZM518.395 20.3203C518.395 17.5547 519.59 15.3281 521.98 13.6406C523.879 12.3047 526.164 11.4961 528.836 11.2148C528.977 11.2148 529.305 11.2148 529.82 11.2148C530.336 11.2148 531.027 11.3672 531.895 11.6719C533.816 12.3281 535.129 13.4883 535.832 15.1523C536.113 15.8086 536.254 16.3711 536.254 16.8398C536.254 17.2852 536.242 17.6016 536.219 17.7891C536.219 20.7188 535.105 23.0273 532.879 24.7148C530.816 26.2617 528.238 27.0352 525.145 27.0352C522.918 27.0352 521.23 26.5195 520.082 25.4883C518.957 24.457 518.395 22.7344 518.395 20.3203ZM520.82 21.1641C520.82 22.6172 521.207 23.6016 521.98 24.1172C522.566 24.4922 523.551 24.6797 524.934 24.6797C526.316 24.6797 527.535 24.5742 528.59 24.3633C529.645 24.1523 530.582 23.7891 531.402 23.2734C533.16 22.1484 534.039 20.4023 534.039 18.0352C534.039 16.6289 533.664 15.4805 532.914 14.5898C532.094 13.6289 531.016 13.1484 529.68 13.1484C528.766 13.3125 527.84 13.4883 526.902 13.6758C525.988 13.8633 525.121 14.2266 524.301 14.7656C522.52 15.9141 521.359 18.0469 520.82 21.1641ZM259.416 76.4375C258.455 76.8359 257.811 77.0352 257.482 77.0352C257.178 77.0352 256.967 77 256.85 76.9297C256.732 76.8594 256.604 76.6953 256.463 76.4375C256.463 75.6641 256.486 74.6914 256.533 73.5195C256.604 72.3477 256.662 71.0938 256.709 69.7578C256.756 68.4219 256.779 67.0742 256.779 65.7148C256.779 64.3555 256.709 63.1133 256.568 61.9883C256.568 61.2383 257.072 60.8633 258.08 60.8633C258.314 60.8633 258.49 61.2852 258.607 62.1289C258.748 62.9727 258.842 63.6289 258.889 64.0977C258.959 64.5664 259.018 64.9062 259.064 65.1172C259.674 64.0156 260.881 63.1484 262.686 62.5156C263.646 62.2109 264.549 62.0586 265.393 62.0586C266.236 62.0586 266.975 62.1641 267.607 62.375C268.264 62.5625 268.814 62.9258 269.26 63.4648C269.729 63.9805 269.963 64.6719 269.963 65.5391C270.572 64.3906 271.943 63.3594 274.076 62.4453C276.021 61.5781 277.768 61.1445 279.314 61.1445C281.541 61.1445 282.631 61.9883 282.584 63.6758L283.322 76.7539C283.322 76.8711 282.982 76.9531 282.303 77C280.99 77.0938 280.334 76.9766 280.334 76.6484C280.311 76.1797 280.299 75.7109 280.299 75.2422L280.475 69.582C280.475 66.9336 280.217 64.8359 279.701 63.2891C278.154 63.4062 276.959 63.6641 276.115 64.0625C275.295 64.4375 274.568 64.918 273.936 65.5039C273.303 66.0664 272.74 66.8281 272.248 67.7891C271.146 69.9453 270.596 72.8047 270.596 76.3672C270.455 76.8594 269.998 77.1055 269.225 77.1055C268.709 77.1055 268.287 77.0234 267.959 76.8594C267.631 76.6719 267.502 76.5078 267.572 76.3672C268.018 73.8828 268.24 71.9492 268.24 70.5664C268.24 69.4648 268.123 68.4219 267.889 67.4375C267.678 66.4297 267.408 65.2812 267.08 63.9922C263.705 63.9922 261.432 65.3398 260.26 68.0352C259.744 69.2305 259.451 70.3555 259.381 71.4102C259.334 72.4414 259.311 73.332 259.311 74.082C259.311 74.8086 259.346 75.5938 259.416 76.4375ZM287.682 60.4766C287.986 64.8594 288.244 69.9336 288.455 75.6992C288.314 76.4258 287.752 76.7891 286.768 76.7891C286.51 76.7891 286.24 76.7422 285.959 76.6484C285.701 76.5312 285.537 76.3789 285.467 76.1914V60.4766H287.682ZM284.412 55.6953C284.412 54.875 284.893 54.4648 285.854 54.4648C286.486 54.4648 287.002 54.6055 287.4 54.8867C287.471 55.1445 287.506 55.4023 287.506 55.6602C287.506 55.8945 287.412 56.1289 287.225 56.3633C287.037 56.5977 286.756 56.7148 286.381 56.7148C286.006 56.7148 285.631 56.6328 285.256 56.4688C284.881 56.2812 284.6 56.0234 284.412 55.6953ZM303.678 69.3008C303.678 66.5117 303.525 64.4609 303.221 63.1484C303.408 62.7969 303.127 62.6211 302.377 62.6211C301.58 62.6211 300.549 62.8203 299.283 63.2188C298.018 63.6172 296.986 64.0156 296.189 64.4141C294.291 65.3281 293.236 66.2188 293.025 67.0859V76.6484H290.67C290.365 75.8516 290.213 73.6133 290.213 69.9336C290.213 66.6523 290.271 64.2383 290.389 62.6914C290.529 61.1445 290.635 60.2656 290.705 60.0547C291.314 59.6562 291.807 59.457 292.182 59.457C292.768 59.457 293.061 60.1484 293.061 61.5312C293.061 62.0703 293.025 62.5977 292.955 63.1133C292.908 63.6055 292.885 63.9453 292.885 64.1328C296.682 61.3438 299.623 59.9492 301.709 59.9492C304.076 59.9492 305.424 61.8594 305.752 65.6797C305.893 67.0156 305.963 68.8672 305.963 71.2344L305.928 74.0117C305.928 75.043 305.951 76.0391 305.998 77C305.764 77.1406 305.576 77.2109 305.436 77.2109C305.365 77.1875 305.213 77.1523 304.979 77.1055C304.744 77.0586 304.439 77.0234 304.064 77C303.83 76.0625 303.701 75.1133 303.678 74.1523C303.654 73.168 303.643 72.2656 303.643 71.4453L303.678 69.3008ZM307.791 72.3242C307.791 71.9492 307.756 71.4336 307.686 70.7773C307.639 70.0977 307.592 69.3594 307.545 68.5625C307.498 67.7656 307.475 66.957 307.475 66.1367C307.475 65.3164 307.545 64.5664 307.686 63.8867C307.99 62.3633 308.623 61.6016 309.584 61.6016C310.24 61.7891 310.674 62.0234 310.885 62.3047C311.119 62.5859 311.236 62.9375 311.236 63.3594C311.236 63.7578 311.131 64.2617 310.92 64.8711C310.146 66.9102 309.76 68.75 309.76 70.3906C309.76 70.9297 309.795 71.5039 309.865 72.1133C310.24 73.6836 311.529 74.4688 313.732 74.4688C314.881 74.4688 315.971 74.2695 317.002 73.8711C318.971 73.1445 320.307 72.2891 321.01 71.3047C321.221 70.2266 321.326 69.2891 321.326 68.4922C321.326 67.6719 321.291 66.9453 321.221 66.3125C321.174 65.6797 321.104 64.9883 321.01 64.2383C320.939 63.4648 320.893 62.6211 320.869 61.707C321.174 61.5664 321.467 61.4961 321.748 61.4961C322.053 61.4961 322.357 61.6484 322.662 61.9531C322.99 62.2578 323.26 62.832 323.471 63.6758C323.705 64.5195 323.857 65.5156 323.928 66.6641C323.998 67.7891 324.033 68.9609 324.033 70.1797C324.057 71.3984 324.068 72.582 324.068 73.7305C324.068 74.8555 324.115 75.8281 324.209 76.6484C323.928 76.9062 323.658 77.0352 323.4 77.0352C322.463 77.0352 321.771 76.0977 321.326 74.2227C321.021 74.4805 320.506 74.7969 319.779 75.1719C318.232 76.0156 316.404 76.5781 314.295 76.8594C313.896 76.9062 313.451 76.9297 312.959 76.9297C312.467 76.9297 311.846 76.8359 311.096 76.6484C310.369 76.4609 309.678 76.0273 309.021 75.3477C308.365 74.668 307.955 73.6602 307.791 72.3242ZM331.557 73.625L331.627 68C331.627 67.1094 331.545 66.3477 331.381 65.7148H325.932L325.861 63.2891H331.135V54.2188C331.205 54.0078 331.346 53.7969 331.557 53.5859C331.885 53.2578 332.154 53.0938 332.365 53.0938C332.6 53.0938 332.799 53.1172 332.963 53.1641C333.127 53.2109 333.303 53.375 333.49 53.6562C333.865 55.2031 334.053 57.5352 334.053 60.6523C334.053 61.4258 334.088 62.1875 334.158 62.9375C334.908 62.8438 335.658 62.7969 336.408 62.7969C336.408 62.7969 337.018 62.7969 338.236 62.7969C338.682 62.7969 339.092 62.7734 339.467 62.7266L339.361 65.2578L334.229 65.1172L334.404 77.2461C333.982 77.4336 333.619 77.5273 333.314 77.5273C332.143 77.5273 331.557 76.2266 331.557 73.625ZM347.975 74.5391C350.037 74.5391 353.143 73.6016 357.291 71.7266C357.549 71.7266 357.76 71.8203 357.924 72.0078C358.088 72.1719 358.17 72.3711 358.17 72.6055C357.232 74.1992 355.439 75.4414 352.791 76.332C350.143 77.2227 347.67 77.375 345.373 76.7891C342.771 76.1094 341.189 74.6445 340.627 72.3945C340.58 71.9492 340.557 71.3516 340.557 70.6016C340.557 69.8516 340.744 68.8672 341.119 67.6484C341.518 66.4062 342.186 65.2344 343.123 64.1328C344.061 63.0312 345.162 62.1641 346.428 61.5312C347.693 60.8984 349.041 60.582 350.471 60.582C351.83 60.582 353.354 61.0508 355.041 61.9883C355.838 62.4336 356.471 62.9375 356.939 63.5C357.408 64.0625 357.643 64.6367 357.643 65.2227C357.643 65.3867 357.631 65.5508 357.607 65.7148C357.561 67.1445 356.869 68.0469 355.533 68.4219C354.947 68.5859 354.268 68.668 353.494 68.668L348.432 68.457C346.744 68.457 345.455 68.8203 344.564 69.5469C344.049 69.9453 343.686 70.543 343.475 71.3398C344.061 73.4727 345.561 74.5391 347.975 74.5391ZM354.232 63.6758C353.717 63.3008 353.178 63.0312 352.615 62.8672C352.053 62.7031 351.584 62.6211 351.209 62.6211C350.834 62.6211 350.225 62.75 349.381 63.0078C348.537 63.2422 347.787 63.5117 347.131 63.8164C345.514 64.5664 344.705 65.3516 344.705 66.1719C346.58 66.3359 347.986 66.418 348.924 66.418C351.525 66.418 353.283 66.1953 354.197 65.75C354.76 65.5156 355.041 65.2227 355.041 64.8711C355.041 64.4492 354.771 64.0508 354.232 63.6758ZM361.545 74.6445C362.529 74.6445 363.127 74.7383 363.338 74.9258C363.572 75.1133 363.689 75.3125 363.689 75.5234C363.432 76.4609 362.869 77.0234 362.002 77.2109C361.861 77.2344 361.709 77.2461 361.545 77.2461C361.381 77.2461 361.17 77.1992 360.912 77.1055C360.678 77.0117 360.502 76.8477 360.385 76.6133C360.127 76.0273 360.514 75.3711 361.545 74.6445ZM363.197 45.3242C363.057 45.9336 362.986 49.7422 362.986 56.75C362.986 63.7344 362.811 67.7539 362.459 68.8086H360.104C360.104 66.3945 360.197 63.3711 360.385 59.7383C360.713 52.6836 360.877 47.9258 360.877 45.4648L363.197 45.3242Z" fill="#FFB62D"/>
</svg>
